<svg xmlns="http://www.w3.org/2000/svg" viewBox="0 0 251 42" >
  <defs>
    <style>
      .prefix__a {
        fill: #050505
      }
    </style>
  </defs>
  <g class="prefix__a">
    <path d="M97.4998 0H89.7598V9.91H85.7998V16.57H89.7598V40.73H97.4998V16.57H102.09V9.91H97.4998V0Z"/>
    <path d="M60.3801 21.47C61.2501 19.56 62.2001 18.23 63.2201 17.48C64.8501 16.27 66.7401 15.67 68.8901 15.67C70.8801 15.67 72.6201 16.21 74.1201 17.28C75.6201 18.36 76.6301 19.76 77.1401 21.47H60.3801ZM68.5101 9.12C63.9401 9.12 60.1401 10.67 57.1101 13.78C54.0801 16.89 52.5601 20.79 52.5601 25.49C52.5601 30.08 54.0801 33.9 57.1201 36.95C60.1601 40 64.1001 41.53 68.9301 41.53C72.0401 41.53 74.7401 40.98 77.0001 39.87C79.2701 38.77 81.2101 37.06 82.8301 34.76L76.3201 31.7C74.2401 33.72 71.7601 34.73 68.8701 34.73C66.4501 34.73 64.4701 34.08 62.9101 32.79C61.3501 31.5 60.3901 29.75 60.0301 27.56H84.8701L84.9001 26.09C84.9001 20.99 83.3801 16.89 80.3401 13.78C77.3101 10.67 73.3701 9.12 68.5101 9.12Z"/>
    <path d="M242.69 9.90997V25.01C242.69 27.92 242.53 29.82 242.21 30.7C241.77 31.89 241.11 32.79 240.21 33.41C239.31 34.02 238.22 34.33 236.93 34.33C235.64 34.33 234.56 34.02 233.68 33.4C232.8 32.78 232.16 31.9 231.76 30.78C231.36 29.66 231.16 27.65 231.16 24.76V9.90997H223.34V22.74C223.34 27.67 223.64 31.07 224.25 32.94C225.1 35.64 226.57 37.75 228.65 39.26C230.74 40.77 233.47 41.53 236.85 41.53C239.97 41.53 242.53 40.88 244.56 39.59C246.58 38.3 248.11 36.44 249.15 34.02C250 32.04 250.43 28.35 250.43 22.97V9.90997H242.69Z"/>
    <path d="M177.34 31.9C175.74 33.59 173.73 34.44 171.3 34.44C168.95 34.44 166.97 33.58 165.36 31.86C163.75 30.14 162.95 27.95 162.95 25.29C162.95 22.65 163.74 20.48 165.32 18.79C166.9 17.1 168.89 16.25 171.28 16.25C173.73 16.25 175.75 17.08 177.35 18.74C178.95 20.4 179.75 22.57 179.75 25.25C179.74 28 178.94 30.22 177.34 31.9ZM179.4 13.31C178.02 11.91 176.52 10.86 174.9 10.17C173.28 9.47 171.54 9.12 169.7 9.12C165.68 9.12 162.27 10.64 159.46 13.68C156.65 16.72 155.25 20.62 155.25 25.38C155.25 29.97 156.7 33.81 159.61 36.89C162.51 39.98 165.96 41.52 169.94 41.52C171.71 41.52 173.36 41.2 174.88 40.57C176.4 39.94 177.91 38.9 179.42 37.47V40.73H187.15V9.91H179.42V13.31H179.4Z"/>
    <path d="M125.01 31.9C123.41 33.59 121.4 34.44 118.97 34.44C116.62 34.44 114.64 33.58 113.03 31.86C111.42 30.14 110.62 27.95 110.62 25.29C110.62 22.65 111.41 20.48 112.99 18.79C114.57 17.1 116.56 16.25 118.95 16.25C121.4 16.25 123.42 17.08 125.02 18.74C126.62 20.4 127.42 22.57 127.42 25.25C127.41 28 126.61 30.22 125.01 31.9ZM127.07 13.31C125.69 11.91 124.19 10.86 122.57 10.17C120.95 9.47 119.21 9.12 117.37 9.12C113.35 9.12 109.94 10.64 107.13 13.68C104.32 16.72 102.92 20.62 102.92 25.38C102.92 29.97 104.37 33.81 107.28 36.89C110.18 39.98 113.63 41.52 117.61 41.52C119.38 41.52 121.03 41.2 122.55 40.57C124.07 39.94 125.58 38.9 127.09 37.47V40.73H134.82V9.91H127.09V13.31H127.07Z"/>
    <path d="M205.28 28.09L197.5 9.90997H189.62L202.76 40.73H207.77L220.89 9.90997H213.05L205.28 28.09Z"/>
    <path d="M149.83 0H142.09V9.91H138.13V16.57H142.09V40.73H149.83V16.57H154.41V9.91H149.83V0Z"/>
    <path d="M12.71 0.0100098L0 40.71H8.96L15.3 19.29L22.44 40.01L25.26 19.13L19.11 0.0100098H12.71Z"/>
    <path d="M52.6599 40.71L39.8499 0.0100098H33.8399L22.4399 40.01H30.1499L37.2699 19.29L43.6899 40.71H52.6599Z"/>
  </g>
</svg>
