<svg xmlns="http://www.w3.org/2000/svg" viewBox="0 0 266.37 267.9">
  <defs>
    <style>
      .prefix__b {
        fill: #4f4c4d
      }

      .prefix__c {
        fill: #f1511b
      }
    </style>
  </defs>
  <g class="prefix__a">
    <path class="prefix__b" d="M0 218h51.24l32.11-69 29.56 69h40.42L92.08 0z" />
    <path class="prefix__c"
      d="M266.13 218h-51.25l-32.1-69-29.57 69H112.8L174.05 0zM49.3 245.08v21.84H45V247a59.29 59.29 0 00-.28-6.79c-.63-5-3.36-7.84-8.26-7.84-5.25 0-9.31 4.13-9.31 15.12v19.39h-4.38V247a59.29 59.29 0 00-.28-6.79c-.63-5-3.36-7.84-8.26-7.84-5.25 0-9.31 4.13-9.31 15.12v19.39H.58v-37h4.34v6.37L7 232.13a11.29 11.29 0 018.54-3.22c5.88 0 9.52 3.15 10.78 7.91l2.87-4.69c2.1-2.24 5-3.22 8.54-3.22 6.65 0 10.36 4.06 11.2 9.94a37.31 37.31 0 01.35 6.23M59.94 246.27h23.8c-.49-9.52-5.25-13.86-11.48-13.86S60.57 237 59.94 246.27M88 249.7H59.94c.49 10.92 6 14.77 12 14.77 5.18 0 9.8-3.15 11.13-9.24h4.55c-1.75 8.61-8.54 12.67-16 12.67-9.24 0-16.45-6.44-16.45-19.46 0-11.9 7.42-19.53 17.15-19.53 10.36 0 15.75 8.26 15.75 18.48a16.84 16.84 0 01-.07 2.31M100.61 256.77c0 1.54 0 2.31.07 3.29.28 3.57 1.82 4.48 6.79 3.85v3.22a24.16 24.16 0 01-4.48.35c-4.13 0-6.3-1.82-6.65-5.88-.07-1.26-.07-2.66-.07-4.76v-23.31h-4.76v-3.36h4.76V222h4.34v8.19h7.07v3.36h-7.07zM135.4 252.64v-4.27c-10.43-.7-19 1.75-19 8.89 0 4.69 2.94 7.21 8.33 7.21 6.44 0 10.71-4.9 10.71-11.83m.07 7.56l-1.82 3.92c-2.59 2.59-6.23 3.78-10.29 3.78-6.86 0-11.76-3.57-11.76-10.29 0-8.47 8.05-12.6 21.42-12.6h2.38v-1.33c0-1.68 0-3.08-.14-4.55-.35-4.27-2.94-6.72-8.26-6.72-5.11 0-8.75 2.73-9.31 8.47h-4.55c.49-7.28 6-12 13.86-12 8.19 0 12 3.71 12.6 9.8.14 1.61.14 3.15.14 4.9v12.95a86.42 86.42 0 00.7 10.36h-4.38z" />
    <path class="prefix__b"
      d="M154.72 256.77c0 1.54 0 2.31.07 3.29.28 3.57 1.82 4.48 6.79 3.85v3.22a24.16 24.16 0 01-4.48.35c-4.13 0-6.3-1.82-6.65-5.88-.07-1.26-.07-2.66-.07-4.76v-23.31h-4.76v-3.36h4.76V222h4.34v8.19h7.07v3.36h-7.07zM189.51 252.64v-4.27c-10.43-.7-19 1.75-19 8.89 0 4.69 2.94 7.21 8.33 7.21 6.44 0 10.71-4.9 10.71-11.83m.07 7.56l-1.82 3.92c-2.59 2.59-6.23 3.78-10.29 3.78-6.86 0-11.76-3.57-11.76-10.29 0-8.47 8-12.6 21.42-12.6h2.38v-1.33c0-1.68 0-3.08-.14-4.55-.35-4.27-2.94-6.72-8.26-6.72-5.11 0-8.75 2.73-9.31 8.47h-4.55c.49-7.28 6-12 13.86-12 8.19 0 12 3.71 12.6 9.8.14 1.61.14 3.15.14 4.9v12.95a86.42 86.42 0 00.7 10.36h-4.34zM218.14 266.92h-5.39l-14.21-37h4.76l12.32 33.81 12.18-33.81h4.62zM266.37 266.92H262v-7.14l-2 4.13a13.91 13.91 0 01-10.36 4c-7.56 0-12-4.27-12.88-10.15a49 49 0 01-.28-6.23v-21.64h4.34v20.65a50.45 50.45 0 00.28 5.53c.56 4.9 3.78 8.33 9.52 8.33 6.16 0 11.41-4.48 11.41-16.1v-18.41h4.34z" />
  </g>
</svg>